<svg aria-hidden="true" style="width:0;height:0;position:absolute;overflow:hidden" xmlns="http://www.w3.org/2000/svg"><defs><symbol id="icon-icon-fav" viewBox="0 0 21 19"><path d="M19.34 1.68c-.52-.53-1.15-.95-1.83-1.24a5.574 5.574 0 0 0-4.34 0c-.69.29-1.31.71-1.83 1.24l-.84.84-.83-.84A5.623 5.623 0 0 0 5.66 0c-.75 0-1.48.15-2.17.44-.68.29-1.31.71-1.83 1.24A5.803 5.803 0 0 0 0 5.74C0 7.26.6 8.71 1.66 9.8l8.84 8.96 8.84-8.96A5.778 5.778 0 0 0 21 5.74c0-1.52-.59-2.98-1.66-4.06zm-1.07 7.05L10.5 16.6 2.73 8.73a4.271 4.271 0 0 1 0-6c.38-.39.84-.7 1.34-.91s1.05-.32 1.59-.32 1.09.11 1.59.32c.5.21.96.52 1.34.91l1.9 1.95 1.9-1.93c.38-.39.84-.71 1.34-.92.51-.21 1.05-.32 1.6-.32a4.105 4.105 0 0 1 2.93 1.23c.79.8 1.23 1.88 1.23 3 .01 1.11-.43 2.19-1.22 2.99z" style="fill:#fd5103"/><path d="M15.34 1.5a4.105 4.105 0 0 1 2.93 1.23 4.271 4.271 0 0 1 0 6L10.5 16.6 2.73 8.73a4.271 4.271 0 0 1 0-6c.38-.39.84-.7 1.34-.91.51-.21 1.05-.32 1.59-.32s1.09.11 1.59.32c.5.21.96.52 1.34.91l1.91 1.95 1.9-1.93a4.112 4.112 0 0 1 2.94-1.25z"/></symbol><symbol id="icon-menu-1" viewBox="0 0 60 32"><path d="M2 0h56a2 2 0 1 1 0 4H2a2 2 0 1 1 0-4zM2 14h56a2 2 0 1 1 0 4H2a2 2 0 1 1 0-4zM2 28h56a2 2 0 1 1 0 4H2a2 2 0 1 1 0-4z"/></symbol><symbol id="icon-close" viewBox="0 0 32 32"><path d="m17.253 16 7.37-7.369a.889.889 0 0 0-1.255-1.252l.001-.001-7.37 7.369-7.368-7.378A.893.893 0 1 0 7.368 8.63l.001.001 7.378 7.37-7.378 7.369a.889.889 0 0 0 .567 1.576.887.887 0 0 0 .685-.322l.001-.001L16 17.254l7.369 7.37a.889.889 0 0 0 1.252-1.255l.001.001L17.253 16z"/></symbol><symbol id="icon-icon-search" viewBox="0 0 31 32"><path d="M12.8 23.68c2.374 0 4.559-.814 6.29-2.177l-.022.017 5.627 5.627 1.81-1.81-5.627-5.627a10.118 10.118 0 0 0 2.162-6.269c0-5.646-4.594-10.24-10.24-10.24S2.56 7.795 2.56 13.441s4.594 10.24 10.24 10.24zm0-17.92c4.236 0 7.68 3.444 7.68 7.68s-3.444 7.68-7.68 7.68-7.68-3.444-7.68-7.68 3.444-7.68 7.68-7.68z"/></symbol><symbol id="scroll-up" viewBox="0 0 28 32"><path d="m15.061 8.158 12.146 12.146a1.5 1.5 0 0 1 0 2.121l-1.417 1.417a1.5 1.5 0 0 1-2.119.003l-9.672-9.626-9.672 9.626a1.5 1.5 0 0 1-2.119-.003L.791 22.425a1.5 1.5 0 0 1 0-2.121L12.937 8.158a1.5 1.5 0 0 1 2.121 0z"/></symbol></defs></svg>