<svg aria-hidden="true" style="width:0;height:0;position:absolute;overflow:hidden" xmlns="http://www.w3.org/2000/svg"><defs><symbol id="icon-icon-fav" viewBox="0 0 37 32"><path fill="#fd5103" style="fill:var(--color1,#fd5103)" d="M26.675 2.56c.92 0 1.829.185 2.678.546a6.9 6.9 0 0 1 2.26 1.553 7.32 7.32 0 0 1 2.072 5.113v.007a7.34 7.34 0 0 1-2.072 5.12l-13.086 13.43-13.086-13.43a7.32 7.32 0 0 1-2.072-5.113v-.007c0-1.915.744-3.756 2.072-5.12a6.945 6.945 0 0 1 2.217-1.536l.045-.017a6.737 6.737 0 0 1 2.683-.548c1.937 0 3.686.805 4.931 2.098l.002.002 3.208 3.328 3.197-3.301a6.888 6.888 0 0 1 2.218-1.557l.044-.017a6.686 6.686 0 0 1 2.68-.551h.011-.001zm0-2.56a9.367 9.367 0 0 0-3.658.744 9.476 9.476 0 0 0-3.085 2.12l-.002.003-1.403 1.435-1.401-1.435A9.47 9.47 0 0 0 14.098.772l-.061-.024C12.958.277 11.701.003 10.38.003S7.802.277 6.662.771l.061-.023a9.523 9.523 0 0 0-3.085 2.116l-.002.002A9.914 9.914 0 0 0 .84 9.781v.011-.001a9.951 9.951 0 0 0 2.796 6.925l14.892 15.283 14.893-15.283a9.914 9.914 0 0 0 2.796-6.915V9.79v.001-.01a9.92 9.92 0 0 0-2.798-6.918l.003.003A9.476 9.476 0 0 0 30.394.769l-.061-.024a9.208 9.208 0 0 0-3.656-.746z"/></symbol><symbol id="icon-menu-1" viewBox="0 0 60 32"><path d="M2 0h56a2 2 0 1 1 0 4H2a2 2 0 1 1 0-4zM2 14h56a2 2 0 1 1 0 4H2a2 2 0 1 1 0-4zM2 28h56a2 2 0 1 1 0 4H2a2 2 0 1 1 0-4z"/></symbol><symbol id="icon-close" viewBox="0 0 32 32"><path d="m17.253 16 7.37-7.369a.889.889 0 0 0-1.255-1.252l.001-.001-7.37 7.369-7.368-7.378A.893.893 0 1 0 7.368 8.63l.001.001 7.378 7.37-7.378 7.369a.889.889 0 0 0 .567 1.576.887.887 0 0 0 .685-.322l.001-.001L16 17.254l7.369 7.37a.889.889 0 0 0 1.252-1.255l.001.001L17.253 16z"/></symbol><symbol id="icon-icon-search" viewBox="0 0 31 32"><path fill="#fd5103" style="fill:var(--color1,#fd5103)" d="M12.8 23.68c2.374 0 4.559-.814 6.29-2.177l-.022.017 5.627 5.627 1.81-1.81-5.627-5.627a10.118 10.118 0 0 0 2.162-6.269c0-5.646-4.594-10.24-10.24-10.24S2.56 7.795 2.56 13.441s4.594 10.24 10.24 10.24zm0-17.92c4.236 0 7.68 3.444 7.68 7.68s-3.444 7.68-7.68 7.68-7.68-3.444-7.68-7.68 3.444-7.68 7.68-7.68z"/></symbol></defs></svg>