<svg aria-hidden="true" style="position: absolute; width: 0; height: 0; overflow: hidden;" version="1.1" xmlns="http://www.w3.org/2000/svg" xmlns:xlink="http://www.w3.org/1999/xlink">
<defs>
<symbol id="icon-close-btn-1" viewBox="0 0 32 32">
<path d="M17.253 16l7.37-7.369c0.133-0.154 0.214-0.357 0.214-0.578 0-0.491-0.398-0.889-0.889-0.889-0.221 0-0.424 0.081-0.58 0.215l0.001-0.001-7.369 7.369-7.369-7.378c-0.157-0.141-0.367-0.228-0.596-0.228-0.493 0-0.893 0.4-0.893 0.893 0 0.229 0.087 0.439 0.229 0.597l-0.001-0.001 7.377 7.37-7.378 7.369c-0.198 0.164-0.323 0.411-0.323 0.686 0 0.492 0.398 0.89 0.89 0.89 0.275 0 0.522-0.125 0.685-0.322l0.001-0.001 7.378-7.369 7.369 7.37c0.154 0.133 0.357 0.214 0.578 0.214 0.491 0 0.889-0.398 0.889-0.889 0-0.221-0.081-0.424-0.215-0.58l0.001 0.001-7.369-7.37z"></path>
</symbol>
</defs>
</svg>
