<svg aria-hidden="true" style="position:absolute;width:0;height:0;overflow:hidden" xmlns="http://www.w3.org/2000/svg"><defs><symbol id="icon-icon-fav" viewBox="0 0 37 32"><path fill="#fd5103" style="fill:var(--color1, #fd5103)" d="M26.675 2.56c.92 0 1.829.185 2.678.546a6.9 6.9 0 0 1 2.26 1.553 7.32 7.32 0 0 1 2.072 5.113v.007a7.34 7.34 0 0 1-2.072 5.12l-13.086 13.43-13.086-13.43a7.32 7.32 0 0 1-2.072-5.113v-.007c0-1.915.744-3.756 2.072-5.12a6.945 6.945 0 0 1 2.217-1.536l.045-.017a6.737 6.737 0 0 1 2.683-.548c1.937 0 3.686.805 4.931 2.098l.002.002 3.208 3.328 3.197-3.301a6.888 6.888 0 0 1 2.218-1.557l.044-.017a6.686 6.686 0 0 1 2.68-.551h.011-.001zm0-2.56a9.367 9.367 0 0 0-3.658.744 9.476 9.476 0 0 0-3.085 2.12l-.002.003-1.403 1.435-1.401-1.435A9.47 9.47 0 0 0 14.098.772l-.061-.024C12.958.277 11.701.003 10.38.003S7.802.277 6.662.771l.061-.023a9.523 9.523 0 0 0-3.085 2.116l-.002.002A9.914 9.914 0 0 0 .84 9.781v.011-.001a9.951 9.951 0 0 0 2.796 6.925l14.892 15.283 14.893-15.283a9.914 9.914 0 0 0 2.796-6.915V9.79v.001-.01a9.92 9.92 0 0 0-2.798-6.918l.003.003A9.476 9.476 0 0 0 30.394.769l-.061-.024a9.208 9.208 0 0 0-3.656-.746z"/></symbol><symbol id="icon-icon-search" viewBox="0 0 31 32"><path fill="#fd5103" style="fill:var(--color1, #fd5103)" d="M12.8 23.68c2.374 0 4.559-.814 6.29-2.177l-.022.017 5.627 5.627 1.81-1.81-5.627-5.627a10.118 10.118 0 0 0 2.162-6.269c0-5.646-4.594-10.24-10.24-10.24S2.56 7.795 2.56 13.441s4.594 10.24 10.24 10.24zm0-17.92c4.236 0 7.68 3.444 7.68 7.68s-3.444 7.68-7.68 7.68-7.68-3.444-7.68-7.68 3.444-7.68 7.68-7.68z"/></symbol><symbol id="icon-modal-close" viewBox="0 0 32 32">
<path d="M18.228 16l13.1-13.1c0.259-0.302 0.394-0.691 0.379-1.089s-0.18-0.775-0.462-1.056c-0.281-0.281-0.659-0.446-1.056-0.462s-0.787 0.12-1.089 0.379l-13.1 13.1-13.1-13.116c-0.298-0.298-0.701-0.465-1.122-0.465s-0.824 0.167-1.122 0.465c-0.298 0.298-0.465 0.701-0.465 1.122s0.167 0.824 0.465 1.122l13.116 13.1-13.116 13.1c-0.165 0.142-0.3 0.316-0.395 0.512s-0.148 0.41-0.157 0.627 0.028 0.435 0.108 0.637c0.079 0.203 0.2 0.387 0.354 0.541s0.338 0.274 0.541 0.354 0.42 0.116 0.637 0.108c0.218-0.008 0.431-0.062 0.627-0.157s0.37-0.229 0.512-0.395l13.116-13.1 13.1 13.1c0.302 0.259 0.691 0.394 1.089 0.379s0.775-0.18 1.056-0.462 0.446-0.659 0.462-1.057c0.015-0.398-0.12-0.787-0.379-1.089l-13.1-13.1z"></path>
</symbol></defs></svg>