<svg aria-hidden="true" style="position:absolute;width:0;height:0;overflow:hidden" xmlns="http://www.w3.org/2000/svg"><defs><symbol id="icon-icon-fav" viewBox="0 0 21 19"><path d="M19.34 1.68c-.52-.53-1.15-.95-1.83-1.24a5.574 5.574 0 0 0-4.34 0c-.69.29-1.31.71-1.83 1.24l-.84.84-.83-.84A5.623 5.623 0 0 0 5.66 0c-.75 0-1.48.15-2.17.44-.68.29-1.31.71-1.83 1.24A5.803 5.803 0 0 0 0 5.74C0 7.26.6 8.71 1.66 9.8l8.84 8.96 8.84-8.96A5.778 5.778 0 0 0 21 5.74c0-1.52-.59-2.98-1.66-4.06zm-1.07 7.05L10.5 16.6 2.73 8.73a4.271 4.271 0 0 1 0-6c.38-.39.84-.7 1.34-.91s1.05-.32 1.59-.32 1.09.11 1.59.32c.5.21.96.52 1.34.91l1.9 1.95 1.9-1.93c.38-.39.84-.71 1.34-.92.51-.21 1.05-.32 1.6-.32a4.105 4.105 0 0 1 2.93 1.23c.79.8 1.23 1.88 1.23 3 .01 1.11-.43 2.19-1.22 2.99z" style="fill:#fd5103"/><path d="M15.34 1.5a4.105 4.105 0 0 1 2.93 1.23 4.271 4.271 0 0 1 0 6L10.5 16.6 2.73 8.73a4.271 4.271 0 0 1 0-6c.38-.39.84-.7 1.34-.91.51-.21 1.05-.32 1.59-.32s1.09.11 1.59.32c.5.21.96.52 1.34.91l1.91 1.95 1.9-1.93a4.112 4.112 0 0 1 2.94-1.25z"/></symbol><symbol id="icon-menu-1" viewBox="0 0 60 32"><path d="M2 0h56c1.105 0 2 0.895 2 2s-0.895 2-2 2h-56c-1.105 0-2-0.895-2-2s0.895-2 2-2z"></path><path d="M2 14h56c1.105 0 2 0.895 2 2s-0.895 2-2 2h-56c-1.105 0-2-0.895-2-2s0.895-2 2-2z"></path><path d="M2 28h56c1.105 0 2 0.895 2 2s-0.895 2-2 2h-56c-1.105 0-2-0.895-2-2s0.895-2 2-2z"></path></symbol><symbol id="icon-close" viewBox="0 0 32 32"><path d="M17.253 16l7.37-7.369c0.138-0.156 0.223-0.362 0.223-0.588 0-0.49-0.398-0.888-0.888-0.888-0.226 0-0.433 0.085-0.59 0.224l0.001-0.001-7.37 7.369-7.368-7.378c-0.164-0.18-0.399-0.292-0.661-0.292-0.493 0-0.893 0.4-0.893 0.893 0 0.261 0.112 0.496 0.291 0.66l0.001 0.001 7.378 7.37-7.378 7.369c-0.198 0.164-0.323 0.411-0.323 0.686 0 0.492 0.398 0.89 0.89 0.89 0.275 0 0.522-0.125 0.685-0.322l0.001-0.001 7.378-7.369 7.369 7.37c0.154 0.133 0.357 0.214 0.578 0.214 0.491 0 0.889-0.398 0.889-0.889 0-0.221-0.081-0.424-0.215-0.58l0.001 0.001-7.369-7.37z"></path></symbol><symbol id="icon-icon-search" viewBox="0 0 31 32"><path d="M12.8 23.68c2.374 0 4.559-.814 6.29-2.177l-.022.017 5.627 5.627 1.81-1.81-5.627-5.627a10.118 10.118 0 0 0 2.162-6.269c0-5.646-4.594-10.24-10.24-10.24S2.56 7.795 2.56 13.441s4.594 10.24 10.24 10.24zm0-17.92c4.236 0 7.68 3.444 7.68 7.68s-3.444 7.68-7.68 7.68-7.68-3.444-7.68-7.68 3.444-7.68 7.68-7.68z"/></symbol><symbol id="scroll-up" viewBox="0 0 28 32"><path d="M15.061 8.158l12.146 12.146c0.586 0.586 0.586 1.536 0 2.121l-1.417 1.417c-0.585 0.585-1.533 0.586-2.119 0.003l-9.672-9.626-9.672 9.626c-0.586 0.583-1.534 0.582-2.119-0.003l-1.417-1.417c-0.586-0.586-0.586-1.536 0-2.121l12.146-12.146c0.586-0.586 1.536-0.586 2.121-0z"></path></symbol></defs></svg>
